<svg xmlns="http://www.w3.org/2000/svg" version="1.1" xmlns:xlink="http://www.w3.org/1999/xlink" xmlns:svgjs="http://svgjs.dev/svgjs" width="1500" height="1500" viewBox="0 0 1500 1500"><rect width="1500" height="1500" fill="#ffffff"></rect><g transform="matrix(0.6666666666666666,0,0,0.6666666666666666,249.39393939393938,684.7410089080827)"><svg viewBox="0 0 396 52" data-background-color="#e7d1c2" preserveAspectRatio="xMidYMid meet" height="196" width="1500" xmlns="http://www.w3.org/2000/svg" xmlns:xlink="http://www.w3.org/1999/xlink"><g id="tight-bounds" transform="matrix(1,0,0,1,0.2400000000000091,-0.02958517770639446)"><svg viewBox="0 0 395.52 52.05917035541282" height="52.05917035541282" width="395.52"><g><svg viewBox="0 0 503.9076484226387 66.32537953233621" height="52.05917035541282" width="395.52"><g><rect width="4.327996507972328" height="57.5907781756899" x="92.72981812416293" y="4.367300678323158" fill="#000000" opacity="1" stroke-width="0" stroke="transparent" fill-opacity="1" class="rect-qz-0" data-fill-palette-color="primary" rx="1%" id="qz-0" data-palette-color="#ee7d23"></rect></g><g transform="matrix(1,0,0,1,108.38764842263873,9.166532192963981)"><svg viewBox="0 0 395.52 47.99231514640825" height="47.99231514640825" width="395.52"><g id="textblocktransform"><svg viewBox="0 0 395.52 47.99231514640825" height="47.99231514640825" width="395.52" id="textblock"><g><svg viewBox="0 0 395.52 47.99231514640825" height="47.99231514640825" width="395.52"><g transform="matrix(1,0,0,1,0,0)"><svg width="395.52" viewBox="3.5 -28.8 237.33 28.8" height="47.99231514640825" data-palette-color="#ee7d23"><path d="M3.5-14.75L3.5-25.3 9.2-28.75 19.5-28.75 19.5-22.85 9.6-22.85 9.6-17.2 19.5-17.2 19.5-11.35 9.2-11.35 3.5-14.75ZM37.95-3.4L37.95-13.75 32.05-17.2 21.75-17.2 21.75-11.35 31.65-11.35 31.65-5.65 21.95-5.65 21.95 0 32.05 0 37.95-3.4ZM3.5-9.1L9.8-9.1 9.8-5.65 19.5-5.65 19.5 0 9.35 0 3.5-3.4 3.5-9.1ZM31.65-19.45L37.95-19.45 37.95-25.3 32.05-28.75 21.75-28.75 21.75-22.85 31.65-22.85 31.65-19.45ZM42.85 0L42.85-6.9 49.75-6.9 49.75 0 42.85 0ZM58.75 0L58.75-28.75 65.05-28.75 65.05-17.2 67.84-17.2 67.84-11.5 65.05-11.5 65.05 0 58.75 0ZM93.2-2.85L74.75-14.35 93.2-25.9 87.3-28.75 69.7-17.2 69.7-11.5 87.3 0 93.2-2.85ZM112.19-14.75L112.19-25.3 117.89-28.75 128.19-28.75 128.19-22.85 118.29-22.85 118.29-17.2 128.19-17.2 128.19-11.35 117.89-11.35 112.19-14.75ZM146.64-3.4L146.64-13.75 140.74-17.2 130.44-17.2 130.44-11.35 140.34-11.35 140.34-5.65 130.64-5.65 130.64 0 140.74 0 146.64-3.4ZM112.19-9.1L118.49-9.1 118.49-5.65 128.19-5.65 128.19 0 118.04 0 112.19-3.4 112.19-9.1ZM140.34-19.45L146.64-19.45 146.64-25.3 140.74-28.75 130.44-28.75 130.44-22.85 140.34-22.85 140.34-19.45ZM154.14-3.5L154.14-18.55 159.99-22 167.89-22 167.89-17.3 160.39-17.3 160.39-5.4 167.89-5.4 167.89-0.05 159.99-0.05 154.14-3.5ZM183.49-3.5L183.49-18.55 177.64-22 169.69-22 169.69-17.3 177.24-17.3 177.24-5.4 169.69-5.4 169.69-0.05 177.64-0.05 183.49-3.5ZM202.24-13.2L202.24-17.2 209.79-17.2 209.79-13.2 202.24-13.2ZM200.04-28.8L200.04 0 193.79 0 193.79-13.2 188.99-13.2 188.99-17.2 193.79-17.2 193.79-25.35 200.04-28.8ZM216.04-21.85L209.79-21.85 209.79-24.15 202.24-24.15 202.24-28.8 210.39-28.8 216.04-25.35 216.04-21.85ZM227.03-17.2L227.03-21.85 234.53-21.85 234.53-17.2 227.03-17.2ZM234.53-7.5L240.83-7.5 240.83-3.45 235.13 0 227.03 0 227.03-5.25 234.53-5.25 234.53-7.5ZM214.03-19.35L224.78-25.3 224.78-5.25 224.78 0 218.53-3.45 218.53-17.2 214.03-17.15 214.03-19.35Z" opacity="1" transform="matrix(1,0,0,1,0,0)" fill="#000000" class="wordmark-text-0" data-fill-palette-color="primary" id="text-0"></path></svg></g></svg></g></svg></g></svg></g><g><svg viewBox="0 0 81.39998433365946 66.32537953233621" height="66.32537953233621" width="81.39998433365946"><g><svg xmlns:x="http://ns.adobe.com/Extensibility/1.0/" xmlns:i="http://ns.adobe.com/AdobeIllustrator/10.0/" xmlns:graph="http://ns.adobe.com/Graphs/1.0/" xmlns="http://www.w3.org/2000/svg" xmlns:xlink="http://www.w3.org/1999/xlink" version="1.1" x="0" y="0" viewBox="4.999657656012183 11 54.00043446317328 44" enable-background="new 0 0 64 64" xml:space="preserve" height="66.32537953233621" width="81.39998433365946" class="icon-icon-0" data-fill-palette-color="accent" id="icon-0"><g fill="#ea6b62" data-fill-palette-color="accent"><g fill="#ea6b62" data-fill-palette-color="accent"><path d="M49 17H15v20h34V17zM40 23c-0.256 0-0.512-0.098-0.707-0.293l-2-2c-0.391-0.391-0.391-1.023 0-1.414s1.023-0.391 1.414 0l2 2c0.391 0.391 0.391 1.023 0 1.414C40.512 22.902 40.256 23 40 23zM46.707 28.707C46.512 28.902 46.256 29 46 29s-0.512-0.098-0.707-0.293l-4-4c-0.391-0.391-0.391-1.023 0-1.414s1.023-0.391 1.414 0l4 4C47.098 27.684 47.098 28.316 46.707 28.707zM46.707 22.707C46.512 22.902 46.256 23 46 23s-0.512-0.098-0.707-0.293l-2-2c-0.391-0.391-0.391-1.023 0-1.414s1.023-0.391 1.414 0l2 2C47.098 21.684 47.098 22.316 46.707 22.707z" fill="#000000" data-fill-palette-color="accent"></path><path d="M58.948 53.684L55 41.839V12c0-0.552-0.447-1-1-1H10c-0.552 0-1 0.448-1 1v29.838L5.051 53.684c-0.102 0.305-0.05 0.641 0.138 0.901S5.679 55 6 55h52c0.321 0 0.623-0.154 0.812-0.415C58.999 54.324 59.051 53.988 58.948 53.684zM13 16c0-0.552 0.448-1 1-1h36c0.553 0 1 0.448 1 1v22c0 0.553-0.447 1-1 1H14c-0.552 0-1-0.447-1-1V16zM15 51h-2c-0.552 0-1-0.447-1-1s0.448-1 1-1h2c0.552 0 1 0.447 1 1S15.552 51 15 51zM15 46c0-0.553 0.448-1 1-1h2c0.552 0 1 0.447 1 1s-0.448 1-1 1h-2C15.448 47 15 46.553 15 46zM21 51h-2c-0.552 0-1-0.447-1-1s0.448-1 1-1h2c0.552 0 1 0.447 1 1S21.552 51 21 51zM21 46c0-0.553 0.448-1 1-1h2c0.552 0 1 0.447 1 1s-0.448 1-1 1h-2C21.448 47 21 46.553 21 46zM27 51h-2c-0.552 0-1-0.447-1-1s0.448-1 1-1h2c0.552 0 1 0.447 1 1S27.552 51 27 51zM27 46c0-0.553 0.448-1 1-1h2c0.552 0 1 0.447 1 1s-0.448 1-1 1h-2C27.448 47 27 46.553 27 46zM33 51h-2c-0.552 0-1-0.447-1-1s0.448-1 1-1h2c0.553 0 1 0.447 1 1S33.553 51 33 51zM33 46c0-0.553 0.447-1 1-1h2c0.553 0 1 0.447 1 1s-0.447 1-1 1h-2C33.447 47 33 46.553 33 46zM39 51h-2c-0.553 0-1-0.447-1-1s0.447-1 1-1h2c0.553 0 1 0.447 1 1S39.553 51 39 51zM39 46c0-0.553 0.447-1 1-1h2c0.553 0 1 0.447 1 1s-0.447 1-1 1h-2C39.447 47 39 46.553 39 46zM45 51h-2c-0.553 0-1-0.447-1-1s0.447-1 1-1h2c0.553 0 1 0.447 1 1S45.553 51 45 51zM45 46c0-0.553 0.447-1 1-1h2c0.553 0 1 0.447 1 1s-0.447 1-1 1h-2C45.447 47 45 46.553 45 46zM51 51h-2c-0.553 0-1-0.447-1-1s0.447-1 1-1h2c0.553 0 1 0.447 1 1S51.553 51 51 51z" fill="#000000" data-fill-palette-color="accent"></path></g></g></svg><g></g></g></svg></g></svg></g><defs></defs></svg><rect width="395.52" height="52.05917035541282" fill="none" stroke="none" visibility="hidden"></rect></g></svg></g></svg>